<svg width="72" height="36" viewBox="0 0 72 36" fill="none" xmlns="http://www.w3.org/2000/svg">
<path d="M11.048 30.488C13.224 30.488 14.808 30.12 15.8 29.384C16.792 28.648 17.288 27.608 17.288 26.264C17.288 25.464 17.112 24.776 16.76 24.2C16.44 23.624 15.96 23.112 15.32 22.664C14.712 22.184 13.96 21.752 13.064 21.368C12.168 20.952 11.144 20.552 9.992 20.168C8.84 19.752 7.72 19.304 6.632 18.824C5.576 18.312 4.632 17.688 3.8 16.952C3 16.216 2.344 15.336 1.832 14.312C1.352 13.288 1.112 12.056 1.112 10.616C1.112 7.608 2.152 5.256 4.232 3.56C6.312 1.832 9.144 0.967998 12.728 0.967998C14.808 0.967998 16.648 1.208 18.248 1.688C19.88 2.136 21.16 2.632 22.088 3.176L20.216 8.072C19.128 7.464 17.928 7 16.616 6.68C15.336 6.36 14.008 6.2 12.632 6.2C11 6.2 9.72 6.536 8.792 7.208C7.896 7.88 7.448 8.824 7.448 10.04C7.448 10.776 7.592 11.416 7.88 11.96C8.2 12.472 8.632 12.936 9.176 13.352C9.752 13.768 10.408 14.152 11.144 14.504C11.912 14.856 12.744 15.192 13.64 15.512C15.208 16.088 16.6 16.68 17.816 17.288C19.064 17.864 20.104 18.568 20.936 19.4C21.8 20.2 22.456 21.16 22.904 22.28C23.352 23.368 23.576 24.696 23.576 26.264C23.576 29.272 22.504 31.608 20.36 33.272C18.248 34.904 15.144 35.72 11.048 35.72C9.672 35.72 8.408 35.624 7.256 35.432C6.136 35.272 5.128 35.064 4.232 34.808C3.368 34.552 2.616 34.296 1.976 34.04C1.336 33.752 0.824 33.496 0.44 33.272L2.216 28.328C3.08 28.808 4.248 29.288 5.72 29.768C7.192 30.248 8.968 30.488 11.048 30.488ZM28.9059 1.736H34.9539V35H28.9059V1.736ZM65.0015 35C64.5535 33.688 64.0895 32.392 63.6095 31.112C63.1295 29.832 62.6655 28.52 62.2175 27.176H48.2015C47.7535 28.52 47.2895 29.848 46.8095 31.16C46.3615 32.44 45.9135 33.72 45.4655 35H39.1775C40.4255 31.448 41.6095 28.168 42.7295 25.16C43.8495 22.152 44.9375 19.304 45.9935 16.616C47.0815 13.928 48.1535 11.368 49.2095 8.936C50.2655 6.504 51.3535 4.104 52.4735 1.736H58.1855C59.3055 4.104 60.3935 6.504 61.4495 8.936C62.5055 11.368 63.5615 13.928 64.6175 16.616C65.7055 19.304 66.8095 22.152 67.9295 25.16C69.0815 28.168 70.2815 31.448 71.5295 35H65.0015ZM55.2095 8.168C54.4735 9.864 53.6255 11.928 52.6655 14.36C51.7375 16.792 50.7615 19.432 49.7375 22.28H60.6815C59.6575 19.432 58.6655 16.776 57.7055 14.312C56.7455 11.848 55.9135 9.8 55.2095 8.168Z" fill="#27367F"/>
</svg>
